<?xml version="1.0" encoding="UTF-8"?>
<svg xmlns="http://www.w3.org/2000/svg" width="1024" height="1024" viewBox="0 0 1024 1024">
  <defs>
    <linearGradient id="bg" x1="0" y1="0" x2="1" y2="1">
      <stop offset="0" stop-color="#060A12"/>
      <stop offset="0.55" stop-color="#071B3A"/>
      <stop offset="1" stop-color="#03040A"/>
    </linearGradient>

    <radialGradient id="glow" cx="50%" cy="38%" r="60%">
      <stop offset="0" stop-color="#2AA6FF" stop-opacity="0.18"/>
      <stop offset="0.55" stop-color="#2AA6FF" stop-opacity="0.06"/>
      <stop offset="1" stop-color="#2AA6FF" stop-opacity="0"/>
    </radialGradient>

    <filter id="softShadow" x="-30%" y="-30%" width="160%" height="160%">
      <feDropShadow dx="0" dy="10" stdDeviation="18" flood-color="#000000" flood-opacity="0.55"/>
    </filter>

    <filter id="softGlow" x="-30%" y="-30%" width="160%" height="160%">
      <feGaussianBlur stdDeviation="2.2" result="blur"/>
      <feColorMatrix in="blur" type="matrix"
        values="
          1 0 0 0 0
          0 1 0 0 0
          0 0 1 0 0
          0 0 0 0.45 0" result="glow"/>
      <feMerge>
        <feMergeNode in="glow"/>
        <feMergeNode in="SourceGraphic"/>
      </feMerge>
    </filter>

    <style>
      .title {
        font-family: Montserrat, Poppins, "Segoe UI", Arial, sans-serif;
        font-weight: 800;
        font-size: 74px;
        letter-spacing: 0.8px;
        fill: #F4FAFF;
      }
      .subtitle {
        font-family: Montserrat, Poppins, "Segoe UI", Arial, sans-serif;
        font-weight: 600;
        font-size: 34px;
        letter-spacing: 0.4px;
        fill: rgba(244,250,255,0.86);
      }
      .footer {
        font-family: Montserrat, Poppins, "Segoe UI", Arial, sans-serif;
        font-weight: 600;
        font-size: 22px;
        letter-spacing: 0.2px;
        fill: rgba(244,250,255,0.72);
      }
      .mutedLine {
        stroke: rgba(244,250,255,0.10);
        stroke-width: 2;
      }
      .iconStroke {
        stroke: rgba(210,238,255,0.85);
        stroke-width: 10;
        stroke-linecap: round;
        stroke-linejoin: round;
        fill: none;
      }
      .iconFill {
        fill: rgba(42,166,255,0.12);
        stroke: rgba(42,166,255,0.55);
        stroke-width: 4;
      }
    </style>
  </defs>

  <!-- Background -->
  <rect x="0" y="0" width="1024" height="1024" fill="url(#bg)"/>
  <rect x="0" y="0" width="1024" height="1024" fill="url(#glow)"/>

  <!-- Subtle grid lines -->
  <g opacity="0.55">
    <path class="mutedLine" d="M120 270 H904"/>
    <path class="mutedLine" d="M160 760 H864"/>
  </g>

  <!-- Center card -->
  <g filter="url(#softShadow)">
    <rect x="120" y="210" width="784" height="604" rx="28" fill="rgba(2,6,16,0.62)" stroke="rgba(90,170,255,0.18)" stroke-width="2"/>
  </g>

  <!-- Icons row -->
  <g transform="translate(0,0)" filter="url(#softGlow)">
    <!-- Lock icon -->
    <g transform="translate(260,320)">
      <rect class="iconFill" x="0" y="56" width="110" height="120" rx="18"/>
      <path class="iconStroke" d="M25 56 V36 C25 13 43 0 55 0 C67 0 85 13 85 36 V56"/>
      <path class="iconStroke" d="M40 112 C40 98 50 88 55 88 C60 88 70 98 70 112 C70 124 63 132 55 136 C47 132 40 124 40 112"/>
    </g>

    <!-- Folder icon -->
    <g transform="translate(457,318)">
      <path class="iconFill" d="M10 64 H66 L86 44 H152 C166 44 176 54 176 68 V154 C176 168 166 178 152 178 H24 C10 178 0 168 0 154 V88 C0 74 10 64 24 64 Z"/>
      <path class="iconStroke" d="M12 90 H164"/>
      <path class="iconStroke" d="M12 90 V152 C12 160 18 166 26 166 H150 C158 166 164 160 164 152 V90"/>
      <path class="iconStroke" d="M24 64 H66 L86 44 H152"/>
    </g>

    <!-- Star (Premium) icon -->
    <g transform="translate(704,326)">
      <path class="iconFill" d="M56 0 L72 40 L116 44 L82 72 L92 116 L56 94 L20 116 L30 72 L0 44 L44 40 Z"/>
      <path class="iconStroke" d="M56 10 L69 40 L102 43 L77 64 L85 96 L56 80 L27 96 L35 64 L10 43 L43 40 Z"/>
    </g>
  </g>

  <!-- Text -->
  <g text-anchor="middle">
    <text x="512" y="535" class="title">Secure File Access</text>
    <text x="512" y="594" class="subtitle">Normal &amp; Premium Content Available</text>
  </g>

  <!-- Footer -->
  <g text-anchor="middle">
    <text x="512" y="785" class="footer">Join required channels to continue</text>
  </g>

  <!-- Accent line -->
  <g opacity="0.9">
    <path d="M362 630 H662" stroke="rgba(42,166,255,0.55)" stroke-width="4" stroke-linecap="round"/>
    <path d="M402 630 H622" stroke="rgba(244,250,255,0.25)" stroke-width="2" stroke-linecap="round"/>
  </g>
</svg>

